<svg xmlns="http://www.w3.org/2000/svg" width="130.07" height="118" viewBox="0 0 130.07 118">
  <g id="atom" transform="translate(-53 -59.96)">
    <rect id="Rectangle_13" data-name="Rectangle 13" width="3.469" height="6.937" transform="translate(116.301 136.303)" fill="#fff"/>
    <rect id="Rectangle_14" data-name="Rectangle 14" width="3.469" height="6.937" transform="translate(116.301 94.68)" fill="#fff"/>
    <rect id="Rectangle_15" data-name="Rectangle 15" width="6.937" height="3.469" transform="translate(93.755 117.226)" fill="#fff"/>
    <rect id="Rectangle_16" data-name="Rectangle 16" width="6.937" height="3.469" transform="translate(135.378 117.226)" fill="#fff"/>
    <rect id="Rectangle_17" data-name="Rectangle 17" width="6.941" height="3.469" transform="translate(131.516 129.995) rotate(45)" fill="#fff"/>
    <rect id="Rectangle_18" data-name="Rectangle 18" width="6.941" height="3.469" transform="translate(102.085 100.565) rotate(45)" fill="#fff"/>
    <rect id="Rectangle_19" data-name="Rectangle 19" width="3.469" height="6.941" transform="translate(104.547 129.994) rotate(45)" fill="#fff"/>
    <rect id="Rectangle_20" data-name="Rectangle 20" width="3.469" height="6.941" transform="translate(133.976 100.565) rotate(45)" fill="#fff"/>
    <path id="Path_4" data-name="Path 4" d="M143.293,177.96c-6.278,0-13.375-2.4-20.8-7.136-11.593-7.392-22.709-19.659-31.3-34.539S77.541,105.647,76.935,91.911c-.623-14.141,3.55-24.536,11.752-29.273s19.293-3.152,31.227,4.458c11.593,7.392,22.709,19.659,31.3,34.539s13.656,30.639,14.262,44.375c.623,14.141-3.551,24.537-11.753,29.272A20.564,20.564,0,0,1,143.293,177.96ZM99.137,63.429a17.183,17.183,0,0,0-8.716,2.213C83.394,69.7,79.835,78.973,80.4,91.757c.582,13.189,5.483,28.387,13.8,42.794S113.228,160.8,124.359,167.9c10.79,6.881,20.6,8.435,27.628,4.379s10.586-13.331,10.022-26.116c-.582-13.189-5.483-28.387-13.8-42.794S129.181,77.12,118.049,70.021C111.2,65.65,104.738,63.429,99.137,63.429Z" transform="translate(-3.172 0)" fill="#fff"/>
    <path id="Path_5" data-name="Path 5" d="M99.122,177.96a20.564,20.564,0,0,1-10.429-2.678c-8.2-4.735-12.376-15.132-11.753-29.272.606-13.736,5.671-29.5,14.262-44.375S110.908,74.49,122.5,67.1c11.934-7.609,23.025-9.2,31.227-4.458S166.1,77.77,165.481,91.911c-.606,13.736-5.671,29.5-14.262,44.375s-19.707,27.146-31.3,34.539c-7.423,4.733-14.519,7.136-20.8,7.136ZM143.278,63.429c-5.6,0-12.058,2.222-18.913,6.592-11.131,7.1-21.841,18.942-30.159,33.348s-13.219,29.6-13.8,42.794c-.564,12.784,3,22.059,10.022,26.116s16.837,2.5,27.628-4.379c11.131-7.1,21.841-18.942,30.159-33.348s13.219-29.6,13.8-42.794c.564-12.784-3-22.059-10.022-26.116a17.186,17.186,0,0,0-8.715-2.213Z" transform="translate(-3.173 0)" fill="#fff"/>
    <path id="Path_6" data-name="Path 6" d="M118.035,157.342c-17.181,0-33.362-3.494-45.56-9.837C59.916,140.974,53,132.162,53,122.691s6.916-18.284,19.475-24.814c12.2-6.343,28.379-9.837,45.56-9.837s33.362,3.494,45.56,9.837c12.559,6.53,19.475,15.343,19.475,24.814S176.154,140.974,163.6,147.5C151.4,153.848,135.217,157.342,118.035,157.342Zm0-65.833c-33.948,0-61.567,13.988-61.567,31.182s27.619,31.182,61.567,31.182S179.6,139.885,179.6,122.691,151.983,91.509,118.035,91.509Z" transform="translate(0 -3.731)" fill="#fff"/>
    <circle id="Ellipse_1" data-name="Ellipse 1" cx="13.007" cy="13.007" r="13.007" transform="translate(105.028 105.953)" fill="#37b7dd"/>
    <path id="Path_7" data-name="Path 7" d="M125.741,140.483a14.741,14.741,0,1,1,14.741-14.741A14.758,14.758,0,0,1,125.741,140.483Zm0-26.014a11.273,11.273,0,1,0,11.273,11.273A11.286,11.286,0,0,0,125.741,114.469Z" transform="translate(-7.706 -6.781)" fill="#fff"/>
  </g>
</svg>
